<mxfile host="app.diagrams.net" modified="2024-03-14T08:28:35.830Z" agent="Mozilla/5.0 (X11; Linux x86_64; rv:122.0) Gecko/20100101 Firefox/122.0" version="24.0.6" etag="saFUZrxi76UeaJfffTaJ" type="github">
  <diagram name="Page-1" id="hF7lBVCX6A8t-N4W4s5G">
    <mxGraphModel>
      <root>
        <mxCell id="0" />
        <mxCell id="1" parent="0" />
      </root>
    </mxGraphModel>
  </diagram>
</mxfile>
